<svg xmlns="http://www.w3.org/2000/svg" xmlns:xlink="http://www.w3.org/1999/xlink" viewBox="0 0 400 300" width="406" height="306" class="illustration styles_illustrationTablet__1DWOa"><defs><linearGradient id="linear-gradient" x1="297.33" y1="214.11" x2="307.18" y2="190.77" gradientUnits="userSpaceOnUse"><stop offset="0" stop-color="#fff" stop-opacity="0"></stop><stop offset="0.98" stop-color="#e9a900"></stop></linearGradient><linearGradient id="linear-gradient-2" x1="70.08" y1="185.4" x2="79.93" y2="162.06" xlink:href="#linear-gradient"></linearGradient><linearGradient id="linear-gradient-3" x1="181.05" y1="209.84" x2="195.53" y2="175.53" xlink:href="#linear-gradient"></linearGradient><linearGradient id="linear-gradient-4" x1="262.77" y1="256.66" x2="272.71" y2="233.11" xlink:href="#linear-gradient"></linearGradient></defs><title>141-150</title><g style="isolation: isolate;"><g id="Layer_2" data-name="Layer 2"><path d="M24.88,155.14l138.9-80.78a6.57,6.57,0,0,1,6.57,0L378.07,193.24a6.57,6.57,0,0,1,0,11.39L245.26,281.32a21.44,21.44,0,0,1-21.44,0L24.9,166.51A6.57,6.57,0,0,1,24.88,155.14Z" fill="#f9e48a"></path><path d="M330.3,194.49c-1.93,1.77-3,1.49-6.13,4.33-2.13,1.91-9,5-9,5s-14.57-7.17-21.17-11.08c-11.71-6.92-9.49-6-17.52-9.91L255,196.21l57.35,33.19,38.52-24.09C346.55,202.71,338.82,198.81,330.3,194.49Z" opacity="0.63" fill="url(#linear-gradient)" style="mix-blend-mode: multiply;"></path><path d="M103,165.78c-1.93,1.77-3,1.49-6.13,4.33-2.13,1.91-9,5-9,5S73.36,167.93,66.76,164c-11.71-6.92-9.49-6-17.52-9.91L27.78,167.5l57.35,33.19,38.52-24.09C119.3,174,111.57,170.1,103,165.78Z" opacity="0.63" fill="url(#linear-gradient-2)" style="mix-blend-mode: multiply;"></path><ellipse cx="187.53" cy="194.49" rx="48.41" ry="23.61" fill="url(#linear-gradient-3)"></ellipse><path d="M246,113.34Q237.47,94.83,223.9,87q-10.63-6.14-19.36-2.82c-1.84.41-14.27,7.14-14.27,7.14h4.91q-6.2,8.23-7.4,24.21a79.56,79.56,0,0,0,6.91,39.82q8.51,18.54,22.08,26.37a28.35,28.35,0,0,0,10.52,3.81l-2.41,4.75s11.24-4.37,15.93-8.3q10.47-7.56,12.08-28.86A79.38,79.38,0,0,0,246,113.34Zm-27.89,50.83q-6.63-3.83-10.87-14.4t-3.17-24.84q1.07-14.25,6.48-19.27t12-1.17q6.63,3.83,10.87,14.4t3.17,24.84Q235.55,158,230.13,163T218.09,164.17Z" fill="#ef7070"></path><path d="M246,113.34Q237.47,94.83,223.9,87q-10.63-6.14-19.36-2.82c-1.84.41-14.27,7.14-14.27,7.14h4.91q-6.2,8.23-7.4,24.21a79.56,79.56,0,0,0,6.91,39.82q8.51,18.54,22.08,26.37a28.35,28.35,0,0,0,10.52,3.81l-2.41,4.75s11.24-4.37,15.93-8.3q10.47-7.56,12.08-28.86A79.38,79.38,0,0,0,246,113.34Zm-27.89,50.83q-6.63-3.83-10.87-14.4t-3.17-24.84q1.07-14.25,6.48-19.27t12-1.17q6.63,3.83,10.87,14.4t3.17,24.84Q235.55,158,230.13,163T218.09,164.17Z" fill="#606060" opacity="0.61"></path><path d="M235.25,118.87a79.39,79.39,0,0,1,6.92,39.79q-1.6,21.29-12.08,28.86t-24-.26q-13.57-7.83-22.08-26.37A79.56,79.56,0,0,1,177,121.07q1.6-21.29,12.07-28.82t24,.29Q226.73,100.36,235.25,118.87ZM219.4,168.53q5.4-5,6.48-19.27t-3.17-24.84q-4.24-10.57-10.87-14.4t-12,1.17q-5.42,5-6.48,19.27t3.17,24.84q4.24,10.57,10.87,14.4t12-1.17" fill="#ef7070"></path><path d="M140,145.9l-8.69-5,4.34-57.78-19-11-10.73,5.53,3.13,1.81-29.69,28.7-1.46,19.45,35.85,20.7-1.22,16.21,5.55,3.2v11.73L128.82,174l.48-6.33,9.43-4.87Zm-25-14.42L94.4,119.58l23.26-23.13Z" fill="#ef7070"></path><path d="M140,145.9l-8.69-5,4.34-57.78-19-11-10.73,5.53,3.13,1.81-29.69,28.7-1.46,19.45,35.85,20.7-1.22,16.21,5.55,3.2v11.73L128.82,174l.48-6.33,9.43-4.87Zm-25-14.42L94.4,119.58l23.26-23.13Z" fill="#606060" opacity="0.61"></path><path d="M120.57,146.42l8.69,5L128,168.29l-8.69-5-1.22,16.21-16.28-9.4L103,153.87l-35.85-20.7,1.46-19.45,37.29-36,19,11ZM104.3,137l2.63-35L83.67,125.11,104.3,137" fill="#ef7070"></path><path d="M360.84,178.06l-8.69-5,4.34-57.78-19-11-10.73,5.53,3.13,1.81-29.69,28.7-1.46,19.45,35.85,20.7-1.22,16.21,5.55,3.2v11.73l10.73-5.53.48-6.33,9.43-4.87Zm-25-14.42-20.63-11.91,23.26-23.13Z" fill="#ef7070"></path><path d="M360.84,178.06l-8.69-5,4.34-57.78-19-11-10.73,5.53,3.13,1.81-29.69,28.7-1.46,19.45,35.85,20.7-1.22,16.21,5.55,3.2v11.73l10.73-5.53.48-6.33,9.43-4.87Zm-25-14.42-20.63-11.91,23.26-23.13Z" fill="#606060" opacity="0.61"></path><path d="M341.42,178.58l8.69,5-1.27,16.85-8.69-5-1.22,16.21-16.28-9.4L323.87,186,288,165.34l1.46-19.45,37.29-36,19,11Zm-16.28-9.4,2.63-35-23.26,23.13,20.63,11.91" fill="#ef7070"></path><path d="M307.34,161.73l6.36,22.92s-.54,6.21-8.64,3.63l-5.51-24.18S300.79,158.72,307.34,161.73Z" fill="#ff7b39"></path><path d="M297.77,150.94l4,13.58s3.44,1.76,4.51-1.59L303,149.68Z" fill="#3b125e"></path><path d="M291.53,147.78a30.17,30.17,0,0,1-9.88-28.83c1.28-5.1,4.19-8.67,8.2-10h0c8-2.75,17.47,4.27,21.49,16s.86,23-7.17,25.8a11.34,11.34,0,0,1-6.4.25A16.43,16.43,0,0,1,291.53,147.78Zm-.18-34.51c-2.48.85-4.33,3.26-5.22,6.8a25.6,25.6,0,0,0,8.25,24.08c2.87,2.25,5.81,3,8.29,2.17,5.4-1.85,7.37-11,4.3-19.94-2.38-7-7.23-12.13-11.8-13.23A6.77,6.77,0,0,0,291.35,113.27Z" fill="#3b125e"></path><path d="M296.33,115.26c-1.2-.88-3.91.56-4.77,1.37-7.12,6.67-3.7,19.14,2.47,25.5,2.31,2.38,7.76,5.64,9.77,4.28,0,0-8.91,6-15.27-.63s-7.91-19.52-7.91-19.52l.39-6.79,2.33-4.55,2.37-2.53,5.85-.64Z" fill="#3b125e"></path><path d="M289.36,148.41a30.17,30.17,0,0,1-9.88-28.83c1.28-5.1,4.19-8.67,8.2-10h0c8-2.75,17.47,4.27,21.49,16s.86,23-7.17,25.8a11.34,11.34,0,0,1-6.4.25A16.43,16.43,0,0,1,289.36,148.41Zm-.18-34.51c-2.48.85-4.33,3.26-5.22,6.8a25.6,25.6,0,0,0,8.25,24.08c2.87,2.25,5.81,3,8.29,2.17,5.4-1.85,7.37-11,4.3-19.94-2.38-7-7.23-12.13-11.8-13.23A6.77,6.77,0,0,0,289.18,113.9Z" fill="#662d91"></path><path d="M285.64,150a7,7,0,0,1,.48-.94.1.1,0,0,0,0,.05.12.12,0,0,0,.23,0l.35-.53a.61.61,0,0,0,0,.21.53.53,0,0,0,.58.41.52.52,0,0,0,.47-.66l.16-.18a.52.52,0,0,0,0,.16.46.46,0,0,0,.76.19l.17-.17a.38.38,0,0,0,.31,0,11.82,11.82,0,0,0,1.32-.54.2.2,0,0,1-.07-.33,13.2,13.2,0,0,1,1.6-1.11l.07,0,0-.05a1.8,1.8,0,0,0-.09-1.29,1.41,1.41,0,0,0,.29-1.19.22.22,0,0,1-.12-.05,1,1,0,0,1-.2-.24,1.37,1.37,0,0,1-.22-.41.19.19,0,0,1,.07-.21c-.21-.28-.45-.54-.67-.78a5.28,5.28,0,0,0,.72-3,.45.45,0,0,0-.84-.22,9.56,9.56,0,0,0-.56,1,.38.38,0,0,0-.13.14,56,56,0,0,1-3,5.31c-.18.29-2.43,3.38-2.17,3.46C285.22,149.19,283.38,153.44,285.64,150Zm1.33-1.31s0,0,0,0a.12.12,0,0,0,.18,0v0a.47.47,0,0,0,.39.08.29.29,0,0,1-.59,0Z" fill="#fcbf81"></path><path d="M285.88,149a4.91,4.91,0,0,0,1.21-1.38,1,1,0,0,1,1.31-.37,5.53,5.53,0,0,0,.05-.75,1,1,0,0,1,2,0,4.83,4.83,0,0,1-.77,2.84,8.13,8.13,0,0,1-2.16,1.91,1,1,0,0,1-1.51-.77l-.09-.07A1,1,0,0,1,285.88,149Z" fill="#fcbf81"></path><path d="M289.07,149.75a4,4,0,0,0,1.68-2.35.11.11,0,0,0,.16,0l.79-.53a1.85,1.85,0,0,0,.45-.36c.29-.37,0-.79-.12-1.17a.12.12,0,0,0,0-.06l.11-.19a1.7,1.7,0,0,0,.3-1c-.05-.34-.38-.57-.53-.87a.77.77,0,0,0-.46-.84c-.42-.19-.66.13-.88.44q-.73,1-1.38,2c-.08.14.13.26.22.12.24-.38.48-.75.73-1.12a4.67,4.67,0,0,1,.8-1.12c.88-.51.71.71.57,1s-.19.36-.29.53l-.67,1.18v0a.11.11,0,0,0,0,.1,3.49,3.49,0,0,1-1.53,3.87C288.8,149.63,288.93,149.84,289.07,149.75Zm1.8-4a.11.11,0,0,0-.13,0l0-.08a9.43,9.43,0,0,0,1.08-2l.19.24a.75.75,0,0,1,0,.83C291.86,145.08,291.41,146,290.86,145.71Zm-.08,1.51a3.47,3.47,0,0,0,0-1.27c.43.21.79-.07,1-.41a2.74,2.74,0,0,1,.17.49.52.52,0,0,1-.27.55C291.43,146.8,291.1,147,290.78,147.22Z" fill="#34323d"></path><path d="M274.89,153.75s5.79.28,7.3-1.11,3.68-5.75,3.68-5.75,4,2.56,4.19,4-4.17,8.61-6.11,9.09" fill="#e55600"></path><path d="M266.11,225.13s4.89-2.18,6.07-2.26,3.15.32,1.43,2.48c0,0-5.15,3.37-5.83,3.47s-2.33-.41-2.37-.23-.2,1.48-.2,1.48-4.3,1.64-4.49-1.24c0-.38.62-5.72.62-5.72" fill="#e55600"></path><path d="M260.49,212.52c.85-5.53,2.41-10.89,3.06-16.49.41-3.52.7-7.06,1.13-10.58s1.75-6.93,2.59-10.41a.38.38,0,0,0-.17-.43l.12-.37c.43-.41.88-.81,1.31-1.18l6,4.05s0,3.68-.22,9c-.7,3.11-1.23,5.89-2,8.84a.77.77,0,0,1,.19.7,249.87,249.87,0,0,0-4.27,28.14.81.81,0,0,1-.54.7l-.17,1.46c-5.23,2-6.38-1.5-6.38-1.5s-.24-3-.53-7.16C260.48,215.72,260.46,214.12,260.49,212.52Z" fill="#34323d"></path><path d="M304.78,156.09c-.31.18-.65.39-1,.66a13.9,13.9,0,0,0,1.36-2.11c.39-.65-.58-1.18-1-.7a40.84,40.84,0,0,1-4.3,4,.66.66,0,0,0-.17.2l-.94,0h-.8l-.22,0a.57.57,0,0,0-.53.16,1.82,1.82,0,0,0-.35.16l-.1.08-.92.1a.67.67,0,0,0-.5,1l-.13-.07c-.7-.43-1.25.72-.56,1.14a9.29,9.29,0,0,0,4.87,1.37.55.55,0,0,0,.55.07l.29-.11a14.08,14.08,0,0,0,4.27-.89,3.86,3.86,0,0,1,1.14-.26h0C305.4,159.29,305.08,157.69,304.78,156.09Z" fill="#fcbf81"></path><path d="M276.81,233.18l2.91,1a1.6,1.6,0,0,0,1.17,1.07.65.65,0,0,0,.41.23,7.62,7.62,0,0,0,3.46-.56c1.39-.44,6.83-2.52,5.32,1.39-1,.7-2.1,1.3-3.12,1.92-.57.35-1.14.69-1.73,1a3.43,3.43,0,0,1-1,.47c-.78.12-2.68-.47-2.73-.27s-.22,1.7-.22,1.7-4.95,1.89-5.16-1.42C276.07,239.32,276.81,233.18,276.81,233.18Z" fill="#e55600"></path><path d="M272.73,203.43c-.61-9.78-.94-19.62-3-29.23-.09-2.5-1.71-.9-1.6-1.89.88-8,12.6,1.53,12.6,1.53.47.39.53,2.85.63,3.41q.79,4.63,1.36,9.3c1.94,15.71,1.22,31.33.43,47.09-2.49,2.54-4.12,3.3-8.13,1.66-.8-10.31-1.56-20.63-2.22-30.95Z" fill="#34323d"></path><path d="M279,154.82c-.11-.51-1.43-.85-1.82-1.06-.91-.49-.38-1.35-1.27-1.88a30.51,30.51,0,0,0-4-2h0c-2.22,0-5.95-.12-6.17,2.85a88.81,88.81,0,0,0,.41,13.69c.14,1.83.3,3.65.46,5.43.06.65.14,5.93.53,6.09,4.41,1.83,10.05,1.18,14.38-.53A146.75,146.75,0,0,0,279,154.82Z" fill="#e55600"></path><path d="M275,159.44a7.46,7.46,0,0,0,5.48,6.55c0,.3.09,2.16.12,2.46-3.52-.85-6.12-5.27-6.49-9C274.09,158.87,275,158.87,275,159.44Z" fill="#34323d"></path><path d="M272.88,140.66c.29.08,2.76,5.74,1.79,9.19s-6.82-.1-8.29-2.72S267.34,139.23,272.88,140.66Z" fill="#fcbf81"></path><path d="M272.8,141.45a2.72,2.72,0,0,1-1.64,2.48c-1.64.6-3,1-2.91,1.77s3-.11,3,1.63a12.92,12.92,0,0,1-.47,3.46c-.18.85-5.09-1.75-6.71-6.2s2.44-5.62,2.63-5.65a4.12,4.12,0,0,1,2.55-1.67c2-.43,2.55.34,2.55.34a2.41,2.41,0,0,1,2.9.31,3.07,3.07,0,0,1-.71,5.19Z" fill="#34323d"></path><path d="M275,151.38s10.11,5.8,13.76,5.8a80.07,80.07,0,0,0,10.52-1.33c2.51,2.13,2.67,5.84,1.12,8.69-4.42.72-17.5,2.6-21.61.57-5-2.46-10.43-5.76-10.43-5.76S263.45,154.5,275,151.38Z" fill="#e55600"></path><path d="M303.75,156.74s1.52-1.25,1.9-1a6.06,6.06,0,0,1,1.19,3.62c-.13,1.25-.77,2.31-3.88,2.28" fill="#fcbf81"></path><rect x="163.8" y="180.22" width="6.09" height="40.4" rx="2.01" ry="2.01" fill="#bc532a"></rect><path d="M181.9,188.49c-1.41-6.1-7.65-33-18.71-25.06-5.67,4-7.27,10.37-9.54,16.55-1.88,5.12-3.44,10.51-3.52,16-.18,11.18,11.19,12.54,19.89,12.5,5,0,12.17-3,13.34-8.43.71-3.28-.5-7.16-1.2-10.38Q182,189.08,181.9,188.49Z" fill="#2c9135"></path><path d="M182.43,189.67q-.13-.59-.27-1.19c-1.24-5.39-6.27-27-15.07-26.49,2.61,11.4,6.46,23.45,4.41,35.12a26.69,26.69,0,0,1-4.65,11.3c1.17.06,2.32.08,3.43.07,5,0,12.17-3,13.34-8.43C184.33,196.77,183.13,192.89,182.43,189.67Z" fill="#156819"></path><rect x="161.79" y="75.4" width="5.19" height="34.42" rx="1.74" ry="1.74" fill="#bc532a"></rect><path d="M177.21,82.44c-1.2-5.19-6.51-28.08-15.94-21.35-4.83,3.45-6.19,8.83-8.12,14.1a42,42,0,0,0-3,13.63c-.15,9.52,9.53,10.69,16.95,10.65,4.27,0,10.37-2.54,11.37-7.18.6-2.8-.42-6.1-1-8.84Z" fill="#2c9135"></path><path d="M177.66,83.45l-.23-1c-1.06-4.59-5.34-23-12.83-22.57,2.23,9.71,5.51,20,3.76,29.92a22.73,22.73,0,0,1-4,9.62c1,0,2,.06,2.92.06,4.27,0,10.37-2.54,11.37-7.18C179.28,89.49,178.26,86.19,177.66,83.45Z" fill="#156819"></path><path d="M250.61,241.6a8.53,8.53,0,0,0,.51,8.38,13.53,13.53,0,0,0,7.65,6l31-19.37c-.65.41-8.78-4.78-9.75-5.28-2.7-1.4-8.8-6.12-11.84-5.45-5,1.1-10.37,7.12-13.86,10.61A17.46,17.46,0,0,0,250.61,241.6Z" opacity="0.63" fill="url(#linear-gradient-4)" style="mix-blend-mode: multiply;"></path></g></g></svg>